{
  "accessors": [
    {
      "bufferView": 2,
      "componentType": 5126,
      "count": 1227,
      "max": [
        0.76704025268554688,
        -0.63856971263885498,
        3.4071724414825439
      ],
      "min": [
        -0.78265315294265747,
        -1.4995722770690918,
        2.2595400810241699
      ],
      "type": "VEC3"
    },
    {
      "bufferView": 2,
      "byteOffset": 14724,
      "componentType": 5126,
      "count": 1227,
      "max": [
        0.99992579221725464,
        0.47675544023513794,
        0.99950587749481201
      ],
      "min": [
        -0.99662113189697266,
        -0.99913448095321655,
        -0.89554435014724731
      ],
      "type": "VEC3"
    },
    {
      "bufferView": 1,
      "componentType": 5126,
      "count": 1227,
      "max": [
        0.34375002980232239,
        0.62500005960464478
      ],
      "min": [
        0.15624998509883881,
        0.37500005960464478
      ],
      "type": "VEC2"
    },
    {
      "bufferView": 0,
      "componentType": 5125,
      "count": 7104,
      "max": [
        1226
      ],
      "min": [
        0
      ],
      "type": "SCALAR"
    },
    {
      "bufferView": 2,
      "byteOffset": 29448,
      "componentType": 5126,
      "count": 20656,
      "max": [
        2.0090804100036621,
        3.3245129585266113,
        3.7848911285400391
      ],
      "min": [
        -2.0098028182983398,
        -2.3329486846923828,
        -1.3665592670440674
      ],
      "type": "VEC3"
    },
    {
      "bufferView": 2,
      "byteOffset": 277320,
      "componentType": 5126,
      "count": 20656,
      "max": [
        1,
        1,
        0.9999927282333374
      ],
      "min": [
        -1,
        -0.99996578693389893,
        -0.99999946355819702
      ],
      "type": "VEC3"
    },
    {
      "bufferView": 1,
      "byteOffset": 9816,
      "componentType": 5126,
      "count": 20656,
      "max": [
        1.0000002384185791,
        1
      ],
      "min": [
        0,
        0
      ],
      "type": "VEC2"
    },
    {
      "bufferView": 0,
      "byteOffset": 28416,
      "componentType": 5125,
      "count": 117402,
      "max": [
        20655
      ],
      "min": [
        0
      ],
      "type": "SCALAR"
    },
    {
      "bufferView": 2,
      "byteOffset": 525192,
      "componentType": 5126,
      "count": 5895,
      "max": [
        3.5235848426818848,
        0.74696516990661621,
        13.70426082611084
      ],
      "min": [
        -2.3818302154541016,
        -1.6388857364654541,
        -3.3023004531860352
      ],
      "type": "VEC3"
    },
    {
      "bufferView": 2,
      "byteOffset": 595932,
      "componentType": 5126,
      "count": 5895,
      "max": [
        0.99987232685089111,
        0.99960935115814209,
        0.99861222505569458
      ],
      "min": [
        -0.99987232685089111,
        -0.99960935115814209,
        -0.99861198663711548
      ],
      "type": "VEC3"
    },
    {
      "bufferView": 1,
      "byteOffset": 175064,
      "componentType": 5126,
      "count": 5895,
      "max": [
        0.79670631885528564,
        0.93704044818878174
      ],
      "min": [
        0.051284890621900558,
        0.060241527855396271
      ],
      "type": "VEC2"
    },
    {
      "bufferView": 0,
      "byteOffset": 498024,
      "componentType": 5125,
      "count": 23808,
      "max": [
        5894
      ],
      "min": [
        0
      ],
      "type": "SCALAR"
    }
  ],
  "asset": {
    "extras": {
      "author": "Atyllia (https://sketchfab.com/Atyllia)",
      "license": "CC-BY-NC-4.0 (http://creativecommons.org/licenses/by-nc/4.0/)",
      "source": "https://sketchfab.com/3d-models/rubber-ducky-e213da3b642640b2bc34a9ff8ae318e2",
      "title": "Rubber Ducky"
    },
    "generator": "Sketchfab-8.56.0",
    "version": "2.0"
  },
  "bufferViews": [
    {
      "buffer": 0,
      "byteLength": 593256,
      "byteOffset": 0,
      "name": "floatBufferViews",
      "target": 34963
    },
    {
      "buffer": 0,
      "byteLength": 222224,
      "byteOffset": 593256,
      "byteStride": 8,
      "name": "floatBufferViews",
      "target": 34962
    },
    {
      "buffer": 0,
      "byteLength": 666672,
      "byteOffset": 815480,
      "byteStride": 12,
      "name": "floatBufferViews",
      "target": 34962
    }
  ],
  "buffers": [
    {
      "byteLength": 1482152,
      "uri": "scene.bin"
    }
  ],
  "images": [
    {
      "uri": "textures/Material.003_baseColor.png"
    }
  ],
  "materials": [
    {
      "doubleSided": true,
      "emissiveFactor": [
        0,
        0,
        0
      ],
      "name": "Material.002",
      "pbrMetallicRoughness": {
        "baseColorFactor": [
          1,
          0.26583499999999999,
          0,
          1
        ],
        "metallicFactor": 0,
        "roughnessFactor": 0.89768442694498385
      }
    },
    {
      "doubleSided": true,
      "emissiveFactor": [
        0,
        0,
        0
      ],
      "name": "Material.001",
      "pbrMetallicRoughness": {
        "baseColorFactor": [
          1,
          0.52252200000000004,
          0,
          1
        ],
        "metallicFactor": 0,
        "roughnessFactor": 0.85104380599134655
      }
    },
    {
      "doubleSided": true,
      "emissiveFactor": [
        0,
        0,
        0
      ],
      "name": "Material.003",
      "pbrMetallicRoughness": {
        "baseColorFactor": [
          1,
          1,
          1,
          1
        ],
        "baseColorTexture": {
          "index": 0,
          "texCoord": 0
        },
        "metallicFactor": 0,
        "roughnessFactor": 0.82111456180001685
      }
    }
  ],
  "meshes": [
    {
      "name": "Duck.001_Material.002_0",
      "primitives": [
        {
          "attributes": {
            "NORMAL": 1,
            "POSITION": 0,
            "TEXCOORD_0": 2
          },
          "indices": 3,
          "material": 0,
          "mode": 4
        }
      ]
    },
    {
      "name": "Duck_Material.001_0",
      "primitives": [
        {
          "attributes": {
            "NORMAL": 5,
            "POSITION": 4,
            "TEXCOORD_0": 6
          },
          "indices": 7,
          "material": 1,
          "mode": 4
        }
      ]
    },
    {
      "name": "Sphere_Material.003_0",
      "primitives": [
        {
          "attributes": {
            "NORMAL": 9,
            "POSITION": 8,
            "TEXCOORD_0": 10
          },
          "indices": 11,
          "material": 2,
          "mode": 4
        }
      ]
    }
  ],
  "nodes": [
    {
      "children": [
        1
      ],
      "name": "RootNode (gltf orientation matrix)",
      "rotation": [
        -0.70710678118654746,
        -0,
        -0,
        0.70710678118654757
      ]
    },
    {
      "children": [
        2
      ],
      "name": "RootNode (model correction matrix)"
    },
    {
      "children": [
        3
      ],
      "matrix": [
        1,
        0,
        0,
        0,
        0,
        0,
        1,
        0,
        0,
        -1,
        0,
        0,
        0,
        0,
        0,
        1
      ],
      "name": "ducknewFInish.fbx"
    },
    {
      "children": [
        4,
        7,
        9,
        11,
        13
      ],
      "name": "RootNode"
    },
    {
      "children": [
        5
      ],
      "matrix": [
        -29.086466835349999,
        -5.5189000007220503,
        -95.517122630955953,
        0,
        56.639318659423537,
        79.467239600399324,
        -21.839114862282457,
        0,
        77.110087844775109,
        -60.452465138496777,
        -19.988341883455352,
        0,
        -325.97540283203125,
        590.38623046875,
        59.09735107421875,
        1
      ],
      "name": "Light"
    },
    {
      "children": [
        6
      ],
      "matrix": [
        1,
        0,
        0,
        0,
        0,
        2.2204460492503131e-16,
        1,
        0,
        0,
        -1,
        2.2204460492503131e-16,
        0,
        0,
        0,
        0,
        1
      ],
      "name": ""
    },
    {
      "name": ""
    },
    {
      "children": [
        8
      ],
      "matrix": [
        -65.155832803290963,
        -44.527135765708579,
        -61.417030473735487,
        0,
        -32.40134137821245,
        89.539574512336159,
        -30.542088974418615,
        0,
        68.592054721299746,
        -1.0718647115348782e-05,
        -72.767633623962695,
        0,
        735.88916015625,
        495.8309326171875,
        692.5791015625,
        1
      ],
      "name": "Camera"
    },
    {
      "name": ""
    },
    {
      "children": [
        10
      ],
      "matrix": [
        31.601787567138672,
        0,
        0,
        0,
        0,
        -5.1485847004345636e-06,
        -31.601787567138253,
        0,
        0,
        31.601787567138253,
        -5.1485847004345636e-06,
        0,
        0,
        4.1433572769165039,
        0,
        1
      ],
      "name": "Duck.001"
    },
    {
      "mesh": 0,
      "name": "Duck.001_Material.002_0"
    },
    {
      "children": [
        12
      ],
      "matrix": [
        31.601787567138672,
        0,
        0,
        0,
        0,
        -5.1485847004345636e-06,
        -31.601787567138253,
        0,
        0,
        31.601787567138253,
        -5.1485847004345636e-06,
        0,
        0,
        4.1433572769165039,
        0,
        1
      ],
      "name": "Duck"
    },
    {
      "mesh": 1,
      "name": "Duck_Material.001_0"
    },
    {
      "children": [
        14
      ],
      "matrix": [
        -4.0568405017624434,
        -1.029361712208982,
        -2.0746807272130785,
        0,
        0.22282739776531246,
        4.6363230820809065,
        -2.7360492647495853,
        0,
        0.53481439856905488,
        -0.49725722223707147,
        -0.79906230660240096,
        0,
        0.82110410928726196,
        117.18582916259766,
        21.819761276245117,
        1
      ],
      "name": "Sphere"
    },
    {
      "mesh": 2,
      "name": "Sphere_Material.003_0"
    }
  ],
  "samplers": [
    {
      "magFilter": 9729,
      "minFilter": 9987,
      "wrapS": 10497,
      "wrapT": 10497
    }
  ],
  "scene": 0,
  "scenes": [
    {
      "name": "OSG_Scene",
      "nodes": [
        0
      ]
    }
  ],
  "textures": [
    {
      "sampler": 0,
      "source": 0
    }
  ]
}

